<svg width="52" height="52" viewBox="0 0 52 52" fill="none" xmlns="http://www.w3.org/2000/svg">
<path d="M8.57996 12.87L25.74 8.57996" stroke="#EB3A3B" stroke-width="3.2175"/>
<path d="M25.74 8.57996L42.9 17.16" stroke="#EB3A3B" stroke-width="3.2175"/>
<path d="M42.9 17.16L38.61 34.32" stroke="#EB3A3B" stroke-width="3.2175"/>
<path d="M8.57996 12.87L12.87 38.61" stroke="#EB3A3B" stroke-width="3.2175"/>
<path d="M12.8699 38.61L38.6099 34.32" stroke="#EB3A3B" stroke-width="3.2175"/>
<path d="M8.57998 17.16C10.9493 17.16 12.87 15.2393 12.87 12.87C12.87 10.5007 10.9493 8.57996 8.57998 8.57996C6.21068 8.57996 4.28998 10.5007 4.28998 12.87C4.28998 15.2393 6.21068 17.16 8.57998 17.16Z" fill="#EB3A3B"/>
<path d="M25.74 12.87C28.1093 12.87 30.03 10.9493 30.03 8.57998C30.03 6.21068 28.1093 4.28998 25.74 4.28998C23.3707 4.28998 21.45 6.21068 21.45 8.57998C21.45 10.9493 23.3707 12.87 25.74 12.87Z" fill="#EB3A3B"/>
<path d="M12.87 42.8999C15.2393 42.8999 17.16 40.9792 17.16 38.6099C17.16 36.2406 15.2393 34.3199 12.87 34.3199C10.5007 34.3199 8.57996 36.2406 8.57996 38.6099C8.57996 40.9792 10.5007 42.8999 12.87 42.8999Z" fill="#EB3A3B"/>
<path d="M42.8999 21.45C45.2692 21.45 47.1899 19.5293 47.1899 17.16C47.1899 14.7907 45.2692 12.87 42.8999 12.87C40.5306 12.87 38.6099 14.7907 38.6099 17.16C38.6099 19.5293 40.5306 21.45 42.8999 21.45Z" fill="#EB3A3B"/>
<path d="M38.61 38.61C40.9793 38.61 42.9 36.6893 42.9 34.32C42.9 31.9507 40.9793 30.03 38.61 30.03C36.2407 30.03 34.32 31.9507 34.32 34.32C34.32 36.6893 36.2407 38.61 38.61 38.61Z" fill="#EB3A3B"/>
</svg>
