<svg width="63" height="61" viewBox="0 0 63 61" fill="none" xmlns="http://www.w3.org/2000/svg">
<g clip-path="url(#clip0_103_590)">
<path d="M10.7999 17.6999C12.9538 17.6999 14.6999 15.9538 14.6999 13.7999C14.6999 11.646 12.9538 9.8999 10.7999 9.8999C8.64599 9.8999 6.8999 11.646 6.8999 13.7999C6.8999 15.9538 8.64599 17.6999 10.7999 17.6999Z" fill="black"/>
<path d="M36.7999 17.6999C38.9538 17.6999 40.6999 15.9538 40.6999 13.7999C40.6999 11.646 38.9538 9.8999 36.7999 9.8999C34.646 9.8999 32.8999 11.646 32.8999 13.7999C32.8999 15.9538 34.646 17.6999 36.7999 17.6999Z" fill="black"/>
<path d="M23.7999 43.6999C25.9538 43.6999 27.6999 41.9538 27.6999 39.7999C27.6999 37.646 25.9538 35.8999 23.7999 35.8999C21.646 35.8999 19.8999 37.646 19.8999 39.7999C19.8999 41.9538 21.646 43.6999 23.7999 43.6999Z" fill="black"/>
<path d="M10.8 13.7998H36.8" stroke="black" stroke-width="3.25"/>
<path d="M36.8 13.7998L23.8 39.7998" stroke="black" stroke-width="3.25"/>
<path d="M23.8 39.7998L10.8 13.7998" stroke="black" stroke-width="3.25"/>
<path d="M49.313 35.7869L41.0348 42.0822C40.4633 42.5168 40.3523 43.3324 40.7869 43.9039L43.9346 48.043C44.3692 48.6145 45.1848 48.7255 45.7563 48.2909L54.0345 41.9956C54.606 41.561 54.717 40.7454 54.2824 40.1739L51.1347 36.0348C50.7001 35.4633 49.8845 35.3523 49.313 35.7869Z" stroke="black" stroke-width="1.95"/>
<path d="M36.8 49.6289L51.1 49.4715" stroke="black" stroke-width="1.95"/>
</g>
<defs>
<clipPath id="clip0_103_590">
<rect width="51" height="45" fill="white" transform="translate(6 8)"/>
</clipPath>
</defs>
</svg>
