<svg width="40" height="40" viewBox="0 0 40 40" fill="none" xmlns="http://www.w3.org/2000/svg">
<path d="M6.59999 13.2C8.42253 13.2 9.89999 11.7225 9.89999 9.89998C9.89999 8.07744 8.42253 6.59998 6.59999 6.59998C4.77745 6.59998 3.29999 8.07744 3.29999 9.89998C3.29999 11.7225 4.77745 13.2 6.59999 13.2Z" fill="black"/>
<path d="M19.8 9.89999C21.6225 9.89999 23.1 8.42253 23.1 6.59999C23.1 4.77745 21.6225 3.29999 19.8 3.29999C17.9775 3.29999 16.5 4.77745 16.5 6.59999C16.5 8.42253 17.9775 9.89999 19.8 9.89999Z" fill="black"/>
<path d="M33 16.5C34.8226 16.5 36.3 15.0225 36.3 13.2C36.3 11.3774 34.8226 9.89996 33 9.89996C31.1775 9.89996 29.7 11.3774 29.7 13.2C29.7 15.0225 31.1775 16.5 33 16.5Z" fill="black"/>
<path d="M9.89998 33C11.7225 33 13.2 31.5225 13.2 29.7C13.2 27.8774 11.7225 26.4 9.89998 26.4C8.07744 26.4 6.59998 27.8774 6.59998 29.7C6.59998 31.5225 8.07744 33 9.89998 33Z" fill="black"/>
<path d="M29.7 29.7C31.5225 29.7 33 28.2225 33 26.4C33 24.5774 31.5225 23.1 29.7 23.1C27.8774 23.1 26.4 24.5774 26.4 26.4C26.4 28.2225 27.8774 29.7 29.7 29.7Z" fill="black"/>
<path d="M6.59998 9.89998L19.8 6.59998" stroke="black" stroke-width="2.475"/>
<path d="M19.8 6.59998L33 13.2" stroke="black" stroke-width="2.475"/>
<path d="M33 13.2L29.7 26.4" stroke="black" stroke-width="2.475"/>
<path d="M6.59998 9.89996L9.89998 29.7" stroke="black" stroke-width="2.475"/>
<path d="M9.89996 29.7L29.7 26.4" stroke="black" stroke-width="2.475"/>
</svg>
