<svg width="337" height="60" viewBox="0 0 337 60" fill="none" xmlns="http://www.w3.org/2000/svg">
<path d="M4.62029 48V13.5936H19.6608C23.3964 13.5936 26.6732 14.3145 29.4912 15.7563C32.3093 17.1981 34.5047 19.1969 36.0776 21.7528C37.6504 24.3087 38.4369 27.3234 38.4369 30.7968C38.4369 34.2374 37.6504 37.2521 36.0776 39.8408C34.5047 42.3967 32.3093 44.3955 29.4912 45.8373C26.6732 47.2791 23.3964 48 19.6608 48H4.62029ZM11.01 42.5933H19.3659C21.9546 42.5933 24.1828 42.1018 26.0506 41.1187C27.9511 40.1357 29.4093 38.7594 30.4251 36.99C31.4737 35.2205 31.998 33.1561 31.998 30.7968C31.998 28.4047 31.4737 26.3403 30.4251 24.6036C29.4093 22.8342 27.9511 21.4579 26.0506 20.4749C24.1828 19.4918 21.9546 19.0003 19.3659 19.0003H11.01V42.5933ZM44.6385 48V21.7528H50.7825V48H44.6385ZM47.735 17.4275C46.5882 17.4275 45.6379 17.067 44.8842 16.3461C44.1633 15.6252 43.8029 14.7569 43.8029 13.7411C43.8029 12.6925 44.1633 11.8241 44.8842 11.136C45.6379 10.4151 46.5882 10.0547 47.735 10.0547C48.8819 10.0547 49.8158 10.3987 50.5367 11.0868C51.2904 11.7422 51.6672 12.5778 51.6672 13.5936C51.6672 14.6749 51.3068 15.5924 50.5859 16.3461C49.865 17.067 48.9147 17.4275 47.735 17.4275ZM56.1431 57.8796C54.9962 57.8796 53.9149 57.7485 52.8991 57.4863C51.8505 57.257 50.9658 56.8801 50.2449 56.3558L52.0143 51.7847C52.9646 52.4728 54.1606 52.8169 55.6024 52.8169C56.7165 52.8169 57.5849 52.4564 58.2075 51.7356C58.8301 51.0474 59.1414 50.0152 59.1414 48.639V21.7528H65.2854V48.4915C65.2854 51.3751 64.4826 53.6525 62.8769 55.3236C61.3041 57.0276 59.0595 57.8796 56.1431 57.8796ZM62.1888 17.4275C61.0419 17.4275 60.0917 17.067 59.338 16.3461C58.6171 15.6252 58.2566 14.7569 58.2566 13.7411C58.2566 12.6925 58.6171 11.8241 59.338 11.136C60.0917 10.4151 61.0419 10.0547 62.1888 10.0547C63.3357 10.0547 64.2696 10.3987 64.9905 11.0868C65.7441 11.7422 66.121 12.5778 66.121 13.5936C66.121 14.6749 65.7605 15.5924 65.0396 16.3461C64.3187 17.067 63.3685 17.4275 62.1888 17.4275ZM78.356 42.1509L78.5034 34.434L92.2168 21.7528H99.5896L87.9406 33.451L84.6966 36.1544L78.356 42.1509ZM73.3425 48V11.5292H79.4865V48H73.3425ZM93.1507 48L83.5661 36.1544L87.4491 31.2392L100.622 48H93.1507ZM111.885 48.3441C109.689 48.3441 107.576 48.0655 105.544 47.5085C103.545 46.9187 101.956 46.2141 100.776 45.3949L103.135 40.7255C104.315 41.4792 105.724 42.1018 107.363 42.5933C109.001 43.0848 110.639 43.3306 112.278 43.3306C114.211 43.3306 115.604 43.0684 116.456 42.5441C117.34 42.0198 117.783 41.3153 117.783 40.4306C117.783 39.7097 117.488 39.169 116.898 38.8086C116.308 38.4154 115.538 38.1204 114.588 37.9238C113.638 37.7272 112.573 37.547 111.393 37.3832C110.246 37.2193 109.083 37.0063 107.903 36.7442C106.756 36.4493 105.708 36.0397 104.758 35.5154C103.807 34.9583 103.037 34.2211 102.447 33.3035C101.858 32.386 101.563 31.1736 101.563 29.6663C101.563 27.9951 102.038 26.5533 102.988 25.3409C103.938 24.0957 105.265 23.1455 106.969 22.4901C108.706 21.802 110.754 21.4579 113.113 21.4579C114.883 21.4579 116.669 21.6545 118.471 22.0477C120.273 22.441 121.764 22.998 122.944 23.7189L120.584 28.3883C119.339 27.6347 118.078 27.1268 116.8 26.8646C115.555 26.5697 114.309 26.4223 113.064 26.4223C111.196 26.4223 109.804 26.7008 108.886 27.2579C108.002 27.8149 107.559 28.5194 107.559 29.3714C107.559 30.1578 107.854 30.7476 108.444 31.1409C109.034 31.5341 109.804 31.8454 110.754 32.0748C111.704 32.3041 112.753 32.5007 113.9 32.6646C115.079 32.7956 116.243 33.0086 117.39 33.3035C118.536 33.5985 119.585 34.0081 120.535 34.5323C121.518 35.0239 122.305 35.7284 122.895 36.6459C123.484 37.5634 123.779 38.7594 123.779 40.234C123.779 41.8724 123.288 43.2978 122.305 44.5102C121.355 45.7226 119.995 46.6729 118.225 47.361C116.456 48.0164 114.342 48.3441 111.885 48.3441ZM138.95 48.3441C136.066 48.3441 133.838 47.6068 132.265 46.1322C130.692 44.6249 129.906 42.4131 129.906 39.4967V15.9529H136.05V39.3492C136.05 40.5944 136.361 41.5611 136.984 42.2492C137.639 42.9373 138.54 43.2814 139.687 43.2814C141.064 43.2814 142.21 42.921 143.128 42.2001L144.848 46.5746C144.127 47.1644 143.243 47.6068 142.194 47.9017C141.145 48.1966 140.064 48.3441 138.95 48.3441ZM125.581 26.8646V21.9494H143.079V26.8646H125.581ZM149.902 48V21.7528H155.752V28.9782L155.063 26.8646C155.85 25.0952 157.079 23.7517 158.75 22.8342C160.454 21.9167 162.567 21.4579 165.09 21.4579V27.307C164.828 27.2415 164.583 27.2087 164.353 27.2087C164.124 27.1759 163.894 27.1595 163.665 27.1595C161.339 27.1595 159.487 27.8477 158.111 29.2239C156.735 30.5674 156.046 32.5827 156.046 35.2696V48H149.902ZM184.601 48V42.6916L184.257 41.5611V32.2714C184.257 30.4691 183.717 29.0765 182.635 28.0934C181.554 27.0776 179.916 26.5697 177.72 26.5697C176.246 26.5697 174.787 26.7991 173.346 27.2579C171.937 27.7166 170.741 28.3556 169.758 29.1748L167.349 24.7019C168.758 23.6206 170.429 22.8178 172.363 22.2935C174.329 21.7364 176.36 21.4579 178.457 21.4579C182.259 21.4579 185.191 22.3754 187.256 24.2104C189.353 26.0127 190.401 28.8143 190.401 32.6154V48H184.601ZM176.344 48.3441C174.378 48.3441 172.658 48.0164 171.183 47.361C169.708 46.6729 168.562 45.739 167.742 44.5594C166.956 43.3469 166.563 41.9871 166.563 40.4797C166.563 39.0052 166.907 37.6781 167.595 36.4984C168.316 35.3188 169.479 34.3849 171.085 33.6968C172.69 33.0086 174.82 32.6646 177.474 32.6646H185.093V36.7442H177.917C175.82 36.7442 174.411 37.0883 173.69 37.7764C172.969 38.4317 172.608 39.2509 172.608 40.234C172.608 41.3481 173.051 42.2328 173.935 42.8882C174.82 43.5436 176.049 43.8712 177.622 43.8712C179.129 43.8712 180.473 43.5272 181.652 42.839C182.865 42.1509 183.733 41.1351 184.257 39.7916L185.29 43.478C184.7 45.0181 183.635 46.2141 182.095 47.0661C180.587 47.9181 178.67 48.3441 176.344 48.3441ZM198.876 48V13.5936H204.136L219.176 38.7103H216.424L231.218 13.5936H236.478L236.527 48H230.481L230.432 23.0799H231.71L219.127 44.0678H216.276L203.497 23.0799H204.971V48H198.876ZM261.401 48V42.6916L261.057 41.5611V32.2714C261.057 30.4691 260.517 29.0765 259.435 28.0934C258.354 27.0776 256.716 26.5697 254.52 26.5697C253.046 26.5697 251.587 26.7991 250.146 27.2579C248.737 27.7166 247.541 28.3556 246.558 29.1748L244.149 24.7019C245.558 23.6206 247.229 22.8178 249.163 22.2935C251.129 21.7364 253.16 21.4579 255.257 21.4579C259.059 21.4579 261.991 22.3754 264.056 24.2104C266.153 26.0127 267.201 28.8143 267.201 32.6154V48H261.401ZM253.144 48.3441C251.178 48.3441 249.458 48.0164 247.983 47.361C246.508 46.6729 245.362 45.739 244.542 44.5594C243.756 43.3469 243.363 41.9871 243.363 40.4797C243.363 39.0052 243.707 37.6781 244.395 36.4984C245.116 35.3188 246.279 34.3849 247.885 33.6968C249.49 33.0086 251.62 32.6646 254.274 32.6646H261.893V36.7442H254.717C252.62 36.7442 251.211 37.0883 250.49 37.7764C249.769 38.4317 249.408 39.2509 249.408 40.234C249.408 41.3481 249.851 42.2328 250.736 42.8882C251.62 43.5436 252.849 43.8712 254.422 43.8712C255.929 43.8712 257.273 43.5272 258.452 42.839C259.665 42.1509 260.533 41.1351 261.057 39.7916L262.09 43.478C261.5 45.0181 260.435 46.2141 258.895 47.0661C257.387 47.9181 255.47 48.3441 253.144 48.3441ZM289.635 48.3441C287.506 48.3441 285.556 47.8525 283.786 46.8695C282.05 45.8865 280.657 44.4119 279.608 42.4458C278.593 40.447 278.085 37.9238 278.085 34.8764C278.085 31.7962 278.576 29.2731 279.559 27.307C280.575 25.3409 281.951 23.8827 283.688 22.9325C285.425 21.9494 287.407 21.4579 289.635 21.4579C292.224 21.4579 294.502 22.015 296.468 23.1291C298.466 24.2432 300.039 25.7997 301.186 27.7985C302.366 29.7974 302.956 32.1567 302.956 34.8764C302.956 37.5962 302.366 39.9718 301.186 42.0035C300.039 44.0023 298.466 45.5588 296.468 46.6729C294.502 47.787 292.224 48.3441 289.635 48.3441ZM275.086 57.5355V21.7528H280.936V27.946L280.739 34.9256L281.23 41.9052V57.5355H275.086ZM288.947 43.0848C290.422 43.0848 291.733 42.7571 292.88 42.1018C294.059 41.4464 294.993 40.4961 295.681 39.2509C296.369 38.0058 296.713 36.5476 296.713 34.8764C296.713 33.1725 296.369 31.7143 295.681 30.5019C294.993 29.2567 294.059 28.3064 292.88 27.6511C291.733 26.9957 290.422 26.668 288.947 26.668C287.473 26.668 286.146 26.9957 284.966 27.6511C283.786 28.3064 282.853 29.2567 282.164 30.5019C281.476 31.7143 281.132 33.1725 281.132 34.8764C281.132 36.5476 281.476 38.0058 282.164 39.2509C282.853 40.4961 283.786 41.4464 284.966 42.1018C286.146 42.7571 287.473 43.0848 288.947 43.0848Z" fill="black"/>
<path d="M310.569 7.10151L319.355 4.90503" stroke="#EB3A3B" stroke-width="1.64736"/>
<path d="M319.355 4.90503L328.141 9.29799" stroke="#EB3A3B" stroke-width="1.64736"/>
<path d="M328.141 9.29797L325.944 18.0839" stroke="#EB3A3B" stroke-width="1.64736"/>
<path d="M310.569 7.10144L312.765 20.2803" stroke="#EB3A3B" stroke-width="1.64736"/>
<path d="M312.765 20.2802L325.944 18.0837" stroke="#EB3A3B" stroke-width="1.64736"/>
<path d="M310.569 9.29799C311.782 9.29799 312.766 8.31459 312.766 7.10151C312.766 5.88843 311.782 4.90503 310.569 4.90503C309.356 4.90503 308.373 5.88843 308.373 7.10151C308.373 8.31459 309.356 9.29799 310.569 9.29799Z" fill="#EB3A3B"/>
<path d="M319.355 7.10146C320.568 7.10146 321.551 6.11806 321.551 4.90498C321.551 3.69189 320.568 2.7085 319.355 2.7085C318.142 2.7085 317.158 3.69189 317.158 4.90498C317.158 6.11806 318.142 7.10146 319.355 7.10146Z" fill="#EB3A3B"/>
<path d="M312.765 22.4767C313.978 22.4767 314.962 21.4933 314.962 20.2802C314.962 19.0671 313.978 18.0837 312.765 18.0837C311.552 18.0837 310.569 19.0671 310.569 20.2802C310.569 21.4933 311.552 22.4767 312.765 22.4767Z" fill="#EB3A3B"/>
<path d="M328.141 11.4944C329.354 11.4944 330.337 10.511 330.337 9.29792C330.337 8.08484 329.354 7.10144 328.141 7.10144C326.928 7.10144 325.944 8.08484 325.944 9.29792C325.944 10.511 326.928 11.4944 328.141 11.4944Z" fill="#EB3A3B"/>
<path d="M325.944 20.2804C327.157 20.2804 328.141 19.297 328.141 18.0839C328.141 16.8708 327.157 15.8875 325.944 15.8875C324.731 15.8875 323.748 16.8708 323.748 18.0839C323.748 19.297 324.731 20.2804 325.944 20.2804Z" fill="#EB3A3B"/>
</svg>
